 <svg width="77" height="60" fill="none" xmlns="http://www.w3.org/2000/svg">
    <path
        d="M0 0v5.56c13.02 0 23.575 10.941 23.575 24.44 0 13.498-10.553 24.438-23.575 24.438V60c16.567 0 29.993-13.43 29.993-29.993S16.567 0 0 0ZM42.663 14.726c0-5.022 4.792-9.257 12.59-9.257 8.984 0 13.465 5.583 13.465 12.679h6.22c0-11.87-8.88-18.144-19.685-18.144-9.719 0-19.008 5.417-19.008 14.725 0 20.398 33.572 13.676 33.572 28.983 0 6.24-5.541 10.76-14.46 10.76-8.556 0-14.798-4.952-14.798-14.079H34.48c0 14.098 10.773 19.602 20.893 19.602 10.17 0 21.222-5.401 21.222-16.283 0-20.674-33.933-13.53-33.933-28.986Z"
        fill="#C57A5C"></path>
</svg>