<svg width="1104" height="112" viewBox="0 0 1104 112" fill="none" xmlns="http://www.w3.org/2000/svg">
<path d="M130.409 110.108H92.1659L78.1813 44.1905H77.5422L63.5576 110.108H25.3149L0 1.89247H36.1782L48.6144 63.2381H49.2289L61.4931 1.89247H95.8034L108.854 63.2381H109.469L121.118 1.89247H155.723L130.409 110.108ZM221.935 0C240.614 0 255.033 4.76805 265.192 14.3041C275.367 23.8566 280.455 37.7511 280.455 55.9877C280.455 74.2407 275.367 88.1352 265.192 97.6713C255.033 107.224 240.614 112 221.935 112C203.273 112 188.887 107.257 178.777 97.7696C168.651 88.2663 163.588 74.339 163.588 55.9877C163.588 37.6365 168.651 23.7174 178.777 14.2304C188.887 4.74347 203.273 0 221.935 0ZM221.935 25.9539C214.497 25.9539 208.836 28.2069 204.952 32.7127C201.069 37.2186 199.127 43.3057 199.127 50.9739V61.0261C199.127 68.6779 201.069 74.765 204.952 79.2872C208.836 83.7931 214.497 86.0461 221.935 86.0461C229.391 86.0461 235.084 83.7931 239.017 79.2872C242.949 74.765 244.916 68.6779 244.916 61.0261V50.9739C244.916 43.3057 242.949 37.2186 239.017 32.7127C235.084 28.2069 229.391 25.9539 221.935 25.9539ZM401.892 35.0722C401.892 41.6754 400.106 47.6559 396.535 53.0138C392.979 58.3553 387.793 62.2878 380.977 64.8111L405.038 110.108H366.034L346.839 70.6359H333.935V110.108H299.183V1.89247H365.395C373.161 1.89247 379.797 3.38351 385.303 6.36559C390.808 9.36406 394.945 13.403 397.714 18.4823C400.5 23.5617 401.892 29.0916 401.892 35.0722ZM366.501 36.4977C366.501 33.6631 365.559 31.3036 363.674 29.4193C361.79 27.5351 359.48 26.5929 356.743 26.5929H333.935V46.5499H356.743C359.48 46.5499 361.79 45.5832 363.674 43.6498C365.559 41.7163 366.501 39.3323 366.501 36.4977ZM468.424 1.89247C506.29 1.89247 525.223 19.9242 525.223 55.9877C525.223 92.0676 506.29 110.108 468.424 110.108H421.554V1.89247H468.424ZM456.307 27.8464V84.1536H467.81C482.376 84.1536 489.659 76.3379 489.659 60.7066V51.2688C489.659 35.6539 482.376 27.8464 467.81 27.8464H456.307ZM604.657 1.89247C611.359 1.89247 617.331 3.44086 622.574 6.53763C627.818 9.61802 631.906 13.8618 634.839 19.2688C637.788 24.6759 639.263 30.7302 639.263 37.4316V39.4716C639.263 46.1894 637.788 52.2765 634.839 57.7327C631.906 63.1889 627.818 67.4572 622.574 70.5376C617.331 73.6344 611.359 75.1828 604.657 75.1828H578.703V110.108H543.926V1.89247H604.657ZM578.703 27.5269V49.8679H593.008C596.678 49.8679 599.431 48.9258 601.266 47.0415C603.101 45.1408 604.018 42.5684 604.018 39.3241V38.0707C604.018 34.7117 603.101 32.1147 601.266 30.2796C599.431 28.4444 596.678 27.5269 593.008 27.5269H578.703ZM760.209 35.0722C760.209 41.6754 758.431 47.6559 754.876 53.0138C751.304 58.3553 746.11 62.2878 739.293 64.8111L763.355 110.108H724.35L705.155 70.6359H692.252V110.108H657.499V1.89247H723.711C731.478 1.89247 738.114 3.38351 743.619 6.36559C749.124 9.36406 753.27 13.403 756.055 18.4823C758.824 23.5617 760.209 29.0916 760.209 35.0722ZM724.817 36.4977C724.817 33.6631 723.875 31.3036 721.991 29.4193C720.106 27.5351 717.796 26.5929 715.06 26.5929H692.252V46.5499H715.06C717.796 46.5499 720.106 45.5832 721.991 43.6498C723.875 41.7163 724.817 39.3323 724.817 36.4977ZM779.871 110.108V1.89247H873.462V27.8464H814.648V42.7896H864.983V67.6375H814.648V84.1536H874.568V110.108H779.871ZM938.912 0C952.741 0 964.113 2.80184 973.026 8.40553C981.94 14.0256 986.503 22.341 986.716 33.3518V35.2442H954.151V34.6052C954.151 31.4593 953.004 28.8377 950.71 26.7404C948.399 24.6431 944.885 23.5945 940.166 23.5945C935.545 23.5945 932.006 24.2744 929.548 25.6344C927.074 26.9944 925.837 28.6738 925.837 30.6728C925.837 33.5074 927.517 35.6047 930.876 36.9647C934.234 38.3246 939.633 39.7419 947.072 41.2166C955.789 43.0026 962.949 44.8623 968.553 46.7957C974.157 48.7291 979.056 51.8996 983.25 56.3072C987.445 60.7148 989.6 66.6953 989.714 74.2488C989.714 87.0456 985.389 96.5325 976.737 102.71C968.086 108.903 956.526 112 942.058 112C925.165 112 912.025 109.165 902.636 103.496C893.264 97.8433 888.577 87.832 888.577 73.4624H921.438C921.438 78.9186 922.855 82.5643 925.69 84.3994C928.524 86.2345 932.932 87.1521 938.912 87.1521C943.304 87.1521 946.941 86.6769 949.825 85.7266C952.709 84.7762 954.151 82.8346 954.151 79.9017C954.151 77.2801 952.553 75.3139 949.358 74.0031C946.163 72.6923 940.944 71.3077 933.702 69.8495C924.903 67.9488 917.62 65.9826 911.852 63.9508C906.085 61.9027 901.047 58.5192 896.737 53.8003C892.444 49.0814 890.298 42.6831 890.298 34.6052C890.298 22.7588 894.886 14.0256 904.061 8.40553C913.237 2.80184 924.854 0 938.912 0ZM1052.46 0C1066.31 0 1077.69 2.80184 1086.6 8.40553C1095.51 14.0256 1100.08 22.341 1100.29 33.3518V35.2442H1067.72V34.6052C1067.72 31.4593 1066.57 28.8377 1064.26 26.7404C1061.96 24.6431 1058.46 23.5945 1053.74 23.5945C1049.12 23.5945 1045.58 24.2744 1043.12 25.6344C1040.65 26.9944 1039.41 28.6738 1039.41 30.6728C1039.41 33.5074 1041.09 35.6047 1044.45 36.9647C1047.81 38.3246 1053.21 39.7419 1060.65 41.2166C1069.35 43.0026 1076.51 44.8623 1082.13 46.7957C1087.73 48.7291 1092.63 51.8996 1096.82 56.3072C1101.02 60.7148 1103.17 66.6953 1103.29 74.2488C1103.29 87.0456 1098.96 96.5325 1090.31 102.71C1081.66 108.903 1070.09 112 1055.61 112C1038.73 112 1025.6 109.165 1016.21 103.496C1006.82 97.8433 1002.13 87.832 1002.13 73.4624H1035.01C1035.01 78.9186 1036.43 82.5643 1039.26 84.3994C1042.1 86.2345 1046.5 87.1521 1052.46 87.1521C1056.87 87.1521 1060.51 86.6769 1063.4 85.7266C1066.28 84.7762 1067.72 82.8346 1067.72 79.9017C1067.72 77.2801 1066.13 75.3139 1062.93 74.0031C1059.74 72.6923 1054.52 71.3077 1047.27 69.8495C1038.48 67.9488 1031.19 65.9826 1025.43 63.9508C1019.66 61.9027 1014.62 58.5192 1010.31 53.8003C1006.02 49.0814 1003.87 42.6831 1003.87 34.6052C1003.87 22.7588 1008.46 14.0256 1017.63 8.40553C1026.81 2.80184 1038.42 0 1052.46 0Z" fill="white"/>
</svg>
